<mxfile host="app.diagrams.net" agent="Mozilla/5.0 (Windows NT 10.0; Win64; x64) AppleWebKit/537.36 (KHTML, like Gecko) Chrome/132.0.0.0 Safari/537.36 Edg/132.0.0.0" version="26.0.10">
  <diagram name="Page-1" id="yoMc2BkCg8vOTf3dTE6V">
    <mxGraphModel dx="1042" dy="531" grid="1" gridSize="10" guides="1" tooltips="1" connect="1" arrows="1" fold="1" page="1" pageScale="1" pageWidth="850" pageHeight="1100" math="0" shadow="0">
      <root>
        <mxCell id="0" />
        <mxCell id="1" parent="0" />
        <mxCell id="RqHe8iyKgeFWLG7yYSla-36" value="" style="rounded=0;whiteSpace=wrap;html=1;fontFamily=Helvetica;fontSize=11;fontColor=default;labelBackgroundColor=default;" parent="1" vertex="1">
          <mxGeometry x="280" y="105" width="380" height="715" as="geometry" />
        </mxCell>
        <mxCell id="RqHe8iyKgeFWLG7yYSla-12" value="" style="shape=or;whiteSpace=wrap;html=1;direction=west;" parent="1" vertex="1">
          <mxGeometry x="310" y="145" width="64" height="50" as="geometry" />
        </mxCell>
        <mxCell id="RqHe8iyKgeFWLG7yYSla-16" style="edgeStyle=orthogonalEdgeStyle;shape=connector;rounded=0;orthogonalLoop=1;jettySize=auto;html=1;exitX=0;exitY=0.57;exitDx=0;exitDy=0;exitPerimeter=0;strokeColor=default;align=center;verticalAlign=middle;fontFamily=Helvetica;fontSize=11;fontColor=default;labelBackgroundColor=default;startFill=0;endArrow=none;" parent="1" source="RqHe8iyKgeFWLG7yYSla-1" edge="1">
          <mxGeometry relative="1" as="geometry">
            <mxPoint x="343" y="120" as="targetPoint" />
          </mxGeometry>
        </mxCell>
        <mxCell id="RqHe8iyKgeFWLG7yYSla-1" value="" style="verticalLabelPosition=bottom;shadow=0;dashed=0;align=center;html=1;verticalAlign=top;shape=mxgraph.electrical.opto_electronics.led_2;pointerEvents=1;direction=south;" parent="1" vertex="1">
          <mxGeometry x="330" y="140" width="30" height="60" as="geometry" />
        </mxCell>
        <mxCell id="RqHe8iyKgeFWLG7yYSla-29" style="edgeStyle=orthogonalEdgeStyle;shape=connector;rounded=0;orthogonalLoop=1;jettySize=auto;html=1;exitX=0;exitY=0.5;exitDx=0;exitDy=0;exitPerimeter=0;entryX=0.5;entryY=1;entryDx=0;entryDy=0;strokeColor=default;align=center;verticalAlign=middle;fontFamily=Helvetica;fontSize=11;fontColor=default;labelBackgroundColor=default;startFill=0;endArrow=none;" parent="1" source="RqHe8iyKgeFWLG7yYSla-3" target="RqHe8iyKgeFWLG7yYSla-26" edge="1">
          <mxGeometry relative="1" as="geometry" />
        </mxCell>
        <mxCell id="RqHe8iyKgeFWLG7yYSla-3" value="" style="verticalLabelPosition=bottom;shadow=0;dashed=0;align=center;html=1;verticalAlign=top;shape=mxgraph.electrical.transistors.npn_transistor_5;" parent="1" vertex="1">
          <mxGeometry x="310" y="235" width="30" height="60" as="geometry" />
        </mxCell>
        <mxCell id="RqHe8iyKgeFWLG7yYSla-4" value="" style="pointerEvents=1;verticalLabelPosition=bottom;shadow=0;dashed=0;align=center;html=1;verticalAlign=top;shape=mxgraph.electrical.resistors.resistor_1;direction=south;" parent="1" vertex="1">
          <mxGeometry x="337" y="330" width="10" height="60" as="geometry" />
        </mxCell>
        <mxCell id="RqHe8iyKgeFWLG7yYSla-5" value="" style="pointerEvents=1;verticalLabelPosition=bottom;shadow=0;dashed=0;align=center;html=1;verticalAlign=top;shape=mxgraph.electrical.signal_sources.signal_ground;" parent="1" vertex="1">
          <mxGeometry x="327" y="420" width="30" height="20" as="geometry" />
        </mxCell>
        <mxCell id="RqHe8iyKgeFWLG7yYSla-6" value="" style="endArrow=classic;html=1;rounded=0;" parent="1" edge="1">
          <mxGeometry width="50" height="50" relative="1" as="geometry">
            <mxPoint x="410" y="120" as="sourcePoint" />
            <mxPoint x="410" y="50" as="targetPoint" />
          </mxGeometry>
        </mxCell>
        <mxCell id="RqHe8iyKgeFWLG7yYSla-7" value="" style="endArrow=none;html=1;rounded=0;" parent="1" edge="1">
          <mxGeometry width="50" height="50" relative="1" as="geometry">
            <mxPoint x="290" y="120" as="sourcePoint" />
            <mxPoint x="610" y="120" as="targetPoint" />
          </mxGeometry>
        </mxCell>
        <mxCell id="RqHe8iyKgeFWLG7yYSla-8" value="" style="shape=or;whiteSpace=wrap;html=1;" parent="1" vertex="1">
          <mxGeometry x="70" y="50" width="60" height="50" as="geometry" />
        </mxCell>
        <mxCell id="RqHe8iyKgeFWLG7yYSla-9" value="" style="shape=or;whiteSpace=wrap;html=1;direction=west;" parent="1" vertex="1">
          <mxGeometry x="10" y="50" width="60" height="50" as="geometry" />
        </mxCell>
        <mxCell id="RqHe8iyKgeFWLG7yYSla-18" style="edgeStyle=orthogonalEdgeStyle;shape=connector;rounded=0;orthogonalLoop=1;jettySize=auto;html=1;exitX=0;exitY=0.57;exitDx=0;exitDy=0;exitPerimeter=0;strokeColor=default;align=center;verticalAlign=middle;fontFamily=Helvetica;fontSize=11;fontColor=default;labelBackgroundColor=default;startFill=0;endArrow=none;" parent="1" source="RqHe8iyKgeFWLG7yYSla-10" edge="1">
          <mxGeometry relative="1" as="geometry">
            <mxPoint x="43" y="20" as="targetPoint" />
          </mxGeometry>
        </mxCell>
        <mxCell id="RqHe8iyKgeFWLG7yYSla-19" style="edgeStyle=orthogonalEdgeStyle;shape=connector;rounded=0;orthogonalLoop=1;jettySize=auto;html=1;exitX=1;exitY=0.57;exitDx=0;exitDy=0;exitPerimeter=0;strokeColor=default;align=center;verticalAlign=middle;fontFamily=Helvetica;fontSize=11;fontColor=default;labelBackgroundColor=default;startFill=0;endArrow=none;" parent="1" source="RqHe8iyKgeFWLG7yYSla-10" edge="1">
          <mxGeometry relative="1" as="geometry">
            <mxPoint x="43" y="130" as="targetPoint" />
          </mxGeometry>
        </mxCell>
        <mxCell id="RqHe8iyKgeFWLG7yYSla-10" value="" style="verticalLabelPosition=bottom;shadow=0;dashed=0;align=center;html=1;verticalAlign=top;shape=mxgraph.electrical.opto_electronics.led_2;pointerEvents=1;direction=south;" parent="1" vertex="1">
          <mxGeometry x="30" y="45" width="30" height="60" as="geometry" />
        </mxCell>
        <mxCell id="RqHe8iyKgeFWLG7yYSla-17" value="15 V" style="text;html=1;align=center;verticalAlign=middle;whiteSpace=wrap;rounded=0;fontFamily=Helvetica;fontSize=11;fontColor=default;labelBackgroundColor=default;" parent="1" vertex="1">
          <mxGeometry x="380" y="30" width="60" height="30" as="geometry" />
        </mxCell>
        <mxCell id="RqHe8iyKgeFWLG7yYSla-20" value="red" style="text;html=1;align=center;verticalAlign=middle;whiteSpace=wrap;rounded=0;fontFamily=Helvetica;fontSize=11;fontColor=default;labelBackgroundColor=default;" parent="1" vertex="1">
          <mxGeometry x="340" y="155" width="60" height="30" as="geometry" />
        </mxCell>
        <mxCell id="RqHe8iyKgeFWLG7yYSla-21" style="edgeStyle=orthogonalEdgeStyle;shape=connector;rounded=0;orthogonalLoop=1;jettySize=auto;html=1;exitX=1;exitY=0.57;exitDx=0;exitDy=0;exitPerimeter=0;entryX=1;entryY=0;entryDx=0;entryDy=0;entryPerimeter=0;strokeColor=default;align=center;verticalAlign=middle;fontFamily=Helvetica;fontSize=11;fontColor=default;labelBackgroundColor=default;startFill=0;endArrow=none;" parent="1" source="RqHe8iyKgeFWLG7yYSla-1" target="RqHe8iyKgeFWLG7yYSla-3" edge="1">
          <mxGeometry relative="1" as="geometry" />
        </mxCell>
        <mxCell id="RqHe8iyKgeFWLG7yYSla-22" value="2N3904" style="text;html=1;align=center;verticalAlign=middle;whiteSpace=wrap;rounded=0;fontFamily=Helvetica;fontSize=11;fontColor=default;labelBackgroundColor=default;" parent="1" vertex="1">
          <mxGeometry x="337" y="250" width="60" height="30" as="geometry" />
        </mxCell>
        <mxCell id="RqHe8iyKgeFWLG7yYSla-23" style="edgeStyle=orthogonalEdgeStyle;shape=connector;rounded=0;orthogonalLoop=1;jettySize=auto;html=1;exitX=1;exitY=1;exitDx=0;exitDy=0;exitPerimeter=0;entryX=0;entryY=0.5;entryDx=0;entryDy=0;entryPerimeter=0;strokeColor=default;align=center;verticalAlign=middle;fontFamily=Helvetica;fontSize=11;fontColor=default;labelBackgroundColor=default;startFill=0;endArrow=none;" parent="1" source="RqHe8iyKgeFWLG7yYSla-3" target="RqHe8iyKgeFWLG7yYSla-4" edge="1">
          <mxGeometry relative="1" as="geometry" />
        </mxCell>
        <mxCell id="RqHe8iyKgeFWLG7yYSla-24" style="edgeStyle=orthogonalEdgeStyle;shape=connector;rounded=0;orthogonalLoop=1;jettySize=auto;html=1;exitX=1;exitY=0.5;exitDx=0;exitDy=0;exitPerimeter=0;entryX=0.5;entryY=0;entryDx=0;entryDy=0;entryPerimeter=0;strokeColor=default;align=center;verticalAlign=middle;fontFamily=Helvetica;fontSize=11;fontColor=default;labelBackgroundColor=default;startFill=0;endArrow=none;" parent="1" source="RqHe8iyKgeFWLG7yYSla-4" target="RqHe8iyKgeFWLG7yYSla-5" edge="1">
          <mxGeometry relative="1" as="geometry" />
        </mxCell>
        <mxCell id="RqHe8iyKgeFWLG7yYSla-25" value="4k7" style="text;html=1;align=center;verticalAlign=middle;whiteSpace=wrap;rounded=0;fontFamily=Helvetica;fontSize=11;fontColor=default;labelBackgroundColor=default;" parent="1" vertex="1">
          <mxGeometry x="337" y="345" width="60" height="30" as="geometry" />
        </mxCell>
        <mxCell id="RqHe8iyKgeFWLG7yYSla-26" value="" style="shape=offPageConnector;whiteSpace=wrap;html=1;fontFamily=Helvetica;fontSize=11;fontColor=default;labelBackgroundColor=default;direction=north;" parent="1" vertex="1">
          <mxGeometry x="40" y="237.5" width="100" height="55" as="geometry" />
        </mxCell>
        <mxCell id="RqHe8iyKgeFWLG7yYSla-27" value="DAC" style="text;html=1;align=center;verticalAlign=middle;whiteSpace=wrap;rounded=0;fontFamily=Helvetica;fontSize=11;fontColor=default;labelBackgroundColor=default;" parent="1" vertex="1">
          <mxGeometry x="40" y="237.5" width="60" height="30" as="geometry" />
        </mxCell>
        <mxCell id="RqHe8iyKgeFWLG7yYSla-28" value="Port C" style="text;html=1;align=center;verticalAlign=middle;whiteSpace=wrap;rounded=0;fontFamily=Helvetica;fontSize=11;fontColor=default;labelBackgroundColor=default;" parent="1" vertex="1">
          <mxGeometry x="40" y="258.57" width="60" height="30" as="geometry" />
        </mxCell>
        <mxCell id="RqHe8iyKgeFWLG7yYSla-30" value="AO0" style="text;html=1;align=center;verticalAlign=middle;whiteSpace=wrap;rounded=0;fontFamily=Helvetica;fontSize=11;fontColor=default;labelBackgroundColor=default;" parent="1" vertex="1">
          <mxGeometry x="120" y="241.43" width="60" height="30" as="geometry" />
        </mxCell>
        <mxCell id="RqHe8iyKgeFWLG7yYSla-35" style="edgeStyle=orthogonalEdgeStyle;shape=connector;rounded=0;orthogonalLoop=1;jettySize=auto;html=1;exitX=0.5;exitY=0;exitDx=0;exitDy=0;exitPerimeter=0;entryX=0;entryY=0.5;entryDx=0;entryDy=0;strokeColor=default;align=center;verticalAlign=middle;fontFamily=Helvetica;fontSize=11;fontColor=default;labelBackgroundColor=default;startFill=0;endArrow=none;" parent="1" source="RqHe8iyKgeFWLG7yYSla-32" target="RqHe8iyKgeFWLG7yYSla-26" edge="1">
          <mxGeometry relative="1" as="geometry" />
        </mxCell>
        <mxCell id="RqHe8iyKgeFWLG7yYSla-32" value="" style="pointerEvents=1;verticalLabelPosition=bottom;shadow=0;dashed=0;align=center;html=1;verticalAlign=top;shape=mxgraph.electrical.signal_sources.signal_ground;" parent="1" vertex="1">
          <mxGeometry x="75" y="320" width="30" height="20" as="geometry" />
        </mxCell>
        <mxCell id="RqHe8iyKgeFWLG7yYSla-48" style="edgeStyle=orthogonalEdgeStyle;shape=connector;rounded=0;orthogonalLoop=1;jettySize=auto;html=1;exitX=0.5;exitY=0;exitDx=0;exitDy=0;exitPerimeter=0;entryX=0;entryY=0.25;entryDx=0;entryDy=0;strokeColor=default;align=center;verticalAlign=middle;fontFamily=Helvetica;fontSize=11;fontColor=default;labelBackgroundColor=default;startFill=0;endArrow=none;" parent="1" source="RqHe8iyKgeFWLG7yYSla-38" target="RqHe8iyKgeFWLG7yYSla-36" edge="1">
          <mxGeometry relative="1" as="geometry">
            <Array as="points">
              <mxPoint x="245" y="290" />
              <mxPoint x="270" y="290" />
            </Array>
          </mxGeometry>
        </mxCell>
        <mxCell id="RqHe8iyKgeFWLG7yYSla-38" value="" style="pointerEvents=1;verticalLabelPosition=bottom;shadow=0;dashed=0;align=center;html=1;verticalAlign=top;shape=mxgraph.electrical.signal_sources.signal_ground;" parent="1" vertex="1">
          <mxGeometry x="230" y="300" width="30" height="20" as="geometry" />
        </mxCell>
        <mxCell id="RqHe8iyKgeFWLG7yYSla-43" value="" style="endArrow=classic;html=1;rounded=0;" parent="1" edge="1">
          <mxGeometry width="50" height="50" relative="1" as="geometry">
            <mxPoint x="230" y="270" as="sourcePoint" />
            <mxPoint x="230" y="292.5" as="targetPoint" />
            <Array as="points">
              <mxPoint x="230" y="282.5" />
            </Array>
          </mxGeometry>
        </mxCell>
        <mxCell id="RqHe8iyKgeFWLG7yYSla-44" value="V_gain" style="text;html=1;align=center;verticalAlign=middle;whiteSpace=wrap;rounded=0;fontFamily=Helvetica;fontSize=11;fontColor=default;labelBackgroundColor=default;" parent="1" vertex="1">
          <mxGeometry x="170" y="265" width="60" height="30" as="geometry" />
        </mxCell>
        <mxCell id="RqHe8iyKgeFWLG7yYSla-61" style="edgeStyle=orthogonalEdgeStyle;shape=connector;rounded=0;orthogonalLoop=1;jettySize=auto;html=1;exitX=0;exitY=0.835;exitDx=0;exitDy=0;exitPerimeter=0;strokeColor=default;align=center;verticalAlign=middle;fontFamily=Helvetica;fontSize=11;fontColor=default;labelBackgroundColor=default;startFill=0;endArrow=none;" parent="1" source="RqHe8iyKgeFWLG7yYSla-46" edge="1">
          <mxGeometry relative="1" as="geometry">
            <mxPoint x="360" y="525" as="targetPoint" />
          </mxGeometry>
        </mxCell>
        <mxCell id="GSGQJa8hS1DyVfbDPlRu-23" style="edgeStyle=orthogonalEdgeStyle;shape=connector;rounded=0;orthogonalLoop=1;jettySize=auto;html=1;exitX=0.612;exitY=0.11;exitDx=0;exitDy=0;exitPerimeter=0;strokeColor=default;align=center;verticalAlign=middle;fontFamily=Helvetica;fontSize=11;fontColor=default;labelBackgroundColor=default;startFill=0;endArrow=none;" edge="1" parent="1" source="RqHe8iyKgeFWLG7yYSla-46">
          <mxGeometry relative="1" as="geometry">
            <mxPoint x="500" y="830" as="targetPoint" />
          </mxGeometry>
        </mxCell>
        <mxCell id="GSGQJa8hS1DyVfbDPlRu-24" style="edgeStyle=orthogonalEdgeStyle;shape=connector;rounded=0;orthogonalLoop=1;jettySize=auto;html=1;exitX=0.612;exitY=0.89;exitDx=0;exitDy=0;exitPerimeter=0;strokeColor=default;align=center;verticalAlign=middle;fontFamily=Helvetica;fontSize=11;fontColor=default;labelBackgroundColor=default;startFill=0;endArrow=none;" edge="1" parent="1" source="RqHe8iyKgeFWLG7yYSla-46">
          <mxGeometry relative="1" as="geometry">
            <mxPoint x="500" y="120" as="targetPoint" />
          </mxGeometry>
        </mxCell>
        <mxCell id="RqHe8iyKgeFWLG7yYSla-46" value="" style="verticalLabelPosition=bottom;shadow=0;dashed=0;align=center;html=1;verticalAlign=top;shape=mxgraph.electrical.abstract.operational_amp_1;fontFamily=Helvetica;fontSize=11;fontColor=default;labelBackgroundColor=default;direction=west;flipH=1;" parent="1" vertex="1">
          <mxGeometry x="440" y="510" width="98" height="90" as="geometry" />
        </mxCell>
        <mxCell id="RqHe8iyKgeFWLG7yYSla-50" value="" style="pointerEvents=1;verticalLabelPosition=bottom;shadow=0;dashed=0;align=center;html=1;verticalAlign=top;shape=mxgraph.electrical.resistors.resistor_1;fontFamily=Helvetica;fontSize=11;fontColor=default;labelBackgroundColor=default;" parent="1" vertex="1">
          <mxGeometry x="310" y="510" width="50" height="10" as="geometry" />
        </mxCell>
        <mxCell id="RqHe8iyKgeFWLG7yYSla-60" style="edgeStyle=orthogonalEdgeStyle;shape=connector;rounded=0;orthogonalLoop=1;jettySize=auto;html=1;exitX=0.5;exitY=1;exitDx=0;exitDy=0;strokeColor=default;align=center;verticalAlign=middle;fontFamily=Helvetica;fontSize=11;fontColor=default;labelBackgroundColor=default;startFill=0;endArrow=none;" parent="1" source="RqHe8iyKgeFWLG7yYSla-53" edge="1">
          <mxGeometry relative="1" as="geometry">
            <mxPoint x="310" y="525" as="targetPoint" />
          </mxGeometry>
        </mxCell>
        <mxCell id="RqHe8iyKgeFWLG7yYSla-53" value="" style="shape=offPageConnector;whiteSpace=wrap;html=1;fontFamily=Helvetica;fontSize=11;fontColor=default;labelBackgroundColor=default;direction=north;" parent="1" vertex="1">
          <mxGeometry x="150" y="497.5" width="100" height="55" as="geometry" />
        </mxCell>
        <mxCell id="RqHe8iyKgeFWLG7yYSla-54" value="DAC" style="text;html=1;align=center;verticalAlign=middle;whiteSpace=wrap;rounded=0;fontFamily=Helvetica;fontSize=11;fontColor=default;labelBackgroundColor=default;" parent="1" vertex="1">
          <mxGeometry x="150" y="497.5" width="60" height="30" as="geometry" />
        </mxCell>
        <mxCell id="RqHe8iyKgeFWLG7yYSla-55" value="Port C" style="text;html=1;align=center;verticalAlign=middle;whiteSpace=wrap;rounded=0;fontFamily=Helvetica;fontSize=11;fontColor=default;labelBackgroundColor=default;" parent="1" vertex="1">
          <mxGeometry x="150" y="518.5699999999999" width="60" height="30" as="geometry" />
        </mxCell>
        <mxCell id="RqHe8iyKgeFWLG7yYSla-57" value="" style="pointerEvents=1;verticalLabelPosition=bottom;shadow=0;dashed=0;align=center;html=1;verticalAlign=top;shape=mxgraph.electrical.resistors.resistor_1;fontFamily=Helvetica;fontSize=11;fontColor=default;labelBackgroundColor=default;" parent="1" vertex="1">
          <mxGeometry x="310" y="528.57" width="50" height="10" as="geometry" />
        </mxCell>
        <mxCell id="RqHe8iyKgeFWLG7yYSla-58" style="edgeStyle=orthogonalEdgeStyle;shape=connector;rounded=0;orthogonalLoop=1;jettySize=auto;html=1;exitX=0;exitY=0.5;exitDx=0;exitDy=0;exitPerimeter=0;entryX=0;entryY=0.5;entryDx=0;entryDy=0;entryPerimeter=0;strokeColor=default;align=center;verticalAlign=middle;fontFamily=Helvetica;fontSize=11;fontColor=default;labelBackgroundColor=default;startFill=0;endArrow=none;" parent="1" source="RqHe8iyKgeFWLG7yYSla-50" target="RqHe8iyKgeFWLG7yYSla-57" edge="1">
          <mxGeometry relative="1" as="geometry" />
        </mxCell>
        <mxCell id="RqHe8iyKgeFWLG7yYSla-59" style="edgeStyle=orthogonalEdgeStyle;shape=connector;rounded=0;orthogonalLoop=1;jettySize=auto;html=1;exitX=1;exitY=0.5;exitDx=0;exitDy=0;exitPerimeter=0;entryX=1;entryY=0.5;entryDx=0;entryDy=0;entryPerimeter=0;strokeColor=default;align=center;verticalAlign=middle;fontFamily=Helvetica;fontSize=11;fontColor=default;labelBackgroundColor=default;startFill=0;endArrow=none;" parent="1" source="RqHe8iyKgeFWLG7yYSla-50" target="RqHe8iyKgeFWLG7yYSla-57" edge="1">
          <mxGeometry relative="1" as="geometry" />
        </mxCell>
        <mxCell id="RqHe8iyKgeFWLG7yYSla-62" value="1M" style="text;html=1;align=center;verticalAlign=middle;whiteSpace=wrap;rounded=0;fontFamily=Helvetica;fontSize=11;fontColor=default;labelBackgroundColor=default;" parent="1" vertex="1">
          <mxGeometry x="317.5" y="490" width="35" height="20" as="geometry" />
        </mxCell>
        <mxCell id="RqHe8iyKgeFWLG7yYSla-63" value="1M" style="text;html=1;align=center;verticalAlign=middle;whiteSpace=wrap;rounded=0;fontFamily=Helvetica;fontSize=11;fontColor=default;labelBackgroundColor=default;" parent="1" vertex="1">
          <mxGeometry x="317.5" y="538.57" width="35" height="20" as="geometry" />
        </mxCell>
        <mxCell id="RqHe8iyKgeFWLG7yYSla-66" style="edgeStyle=orthogonalEdgeStyle;shape=connector;rounded=0;orthogonalLoop=1;jettySize=auto;html=1;exitX=1;exitY=0.5;exitDx=0;exitDy=0;exitPerimeter=0;strokeColor=default;align=center;verticalAlign=middle;fontFamily=Helvetica;fontSize=11;fontColor=default;labelBackgroundColor=default;startFill=0;endArrow=none;" parent="1" source="RqHe8iyKgeFWLG7yYSla-64" edge="1">
          <mxGeometry relative="1" as="geometry">
            <mxPoint x="382" y="520" as="targetPoint" />
          </mxGeometry>
        </mxCell>
        <mxCell id="RqHe8iyKgeFWLG7yYSla-71" value="" style="shape=or;whiteSpace=wrap;html=1;direction=east;" parent="1" vertex="1">
          <mxGeometry x="349" y="577.5" width="76.5" height="60" as="geometry" />
        </mxCell>
        <mxCell id="RqHe8iyKgeFWLG7yYSla-64" value="" style="verticalLabelPosition=bottom;shadow=0;dashed=0;align=center;html=1;verticalAlign=top;shape=mxgraph.electrical.opto_electronics.photo_resistor_1;fontFamily=Helvetica;fontSize=11;fontColor=default;labelBackgroundColor=default;direction=north;" parent="1" vertex="1">
          <mxGeometry x="357" y="580" width="50" height="55" as="geometry" />
        </mxCell>
        <mxCell id="RqHe8iyKgeFWLG7yYSla-65" value="" style="pointerEvents=1;verticalLabelPosition=bottom;shadow=0;dashed=0;align=center;html=1;verticalAlign=top;shape=mxgraph.electrical.signal_sources.signal_ground;" parent="1" vertex="1">
          <mxGeometry x="367" y="660" width="30" height="20" as="geometry" />
        </mxCell>
        <mxCell id="RqHe8iyKgeFWLG7yYSla-67" style="edgeStyle=orthogonalEdgeStyle;shape=connector;rounded=0;orthogonalLoop=1;jettySize=auto;html=1;exitX=0;exitY=0.5;exitDx=0;exitDy=0;exitPerimeter=0;entryX=0.5;entryY=0;entryDx=0;entryDy=0;entryPerimeter=0;strokeColor=default;align=center;verticalAlign=middle;fontFamily=Helvetica;fontSize=11;fontColor=default;labelBackgroundColor=default;startFill=0;endArrow=none;" parent="1" source="RqHe8iyKgeFWLG7yYSla-64" target="RqHe8iyKgeFWLG7yYSla-65" edge="1">
          <mxGeometry relative="1" as="geometry" />
        </mxCell>
        <mxCell id="RqHe8iyKgeFWLG7yYSla-69" style="edgeStyle=orthogonalEdgeStyle;shape=connector;rounded=0;orthogonalLoop=1;jettySize=auto;html=1;exitX=1;exitY=0.5;exitDx=0;exitDy=0;exitPerimeter=0;strokeColor=default;align=center;verticalAlign=middle;fontFamily=Helvetica;fontSize=11;fontColor=default;labelBackgroundColor=default;startFill=0;endArrow=none;" parent="1" source="RqHe8iyKgeFWLG7yYSla-68" edge="1">
          <mxGeometry relative="1" as="geometry">
            <mxPoint x="95" y="20" as="targetPoint" />
          </mxGeometry>
        </mxCell>
        <mxCell id="RqHe8iyKgeFWLG7yYSla-70" style="edgeStyle=orthogonalEdgeStyle;shape=connector;rounded=0;orthogonalLoop=1;jettySize=auto;html=1;exitX=0;exitY=0.5;exitDx=0;exitDy=0;exitPerimeter=0;strokeColor=default;align=center;verticalAlign=middle;fontFamily=Helvetica;fontSize=11;fontColor=default;labelBackgroundColor=default;startFill=0;endArrow=none;" parent="1" source="RqHe8iyKgeFWLG7yYSla-68" edge="1">
          <mxGeometry relative="1" as="geometry">
            <mxPoint x="95" y="130" as="targetPoint" />
          </mxGeometry>
        </mxCell>
        <mxCell id="RqHe8iyKgeFWLG7yYSla-68" value="" style="verticalLabelPosition=bottom;shadow=0;dashed=0;align=center;html=1;verticalAlign=top;shape=mxgraph.electrical.opto_electronics.photo_resistor_1;fontFamily=Helvetica;fontSize=11;fontColor=default;labelBackgroundColor=default;direction=north;" parent="1" vertex="1">
          <mxGeometry x="75" y="52.5" width="40" height="45" as="geometry" />
        </mxCell>
        <mxCell id="RqHe8iyKgeFWLG7yYSla-72" value="AO1" style="text;html=1;align=center;verticalAlign=middle;whiteSpace=wrap;rounded=0;fontFamily=Helvetica;fontSize=11;fontColor=default;labelBackgroundColor=default;" parent="1" vertex="1">
          <mxGeometry x="230" y="500" width="60" height="30" as="geometry" />
        </mxCell>
        <mxCell id="GSGQJa8hS1DyVfbDPlRu-1" value="" style="pointerEvents=1;verticalLabelPosition=bottom;shadow=0;dashed=0;align=center;html=1;verticalAlign=top;shape=mxgraph.electrical.signal_sources.signal_ground;" vertex="1" parent="1">
          <mxGeometry x="240" y="720" width="30" height="20" as="geometry" />
        </mxCell>
        <mxCell id="GSGQJa8hS1DyVfbDPlRu-2" style="edgeStyle=orthogonalEdgeStyle;shape=connector;rounded=0;orthogonalLoop=1;jettySize=auto;html=1;exitX=0.5;exitY=0;exitDx=0;exitDy=0;exitPerimeter=0;entryX=-0.001;entryY=0.833;entryDx=0;entryDy=0;entryPerimeter=0;strokeColor=default;align=center;verticalAlign=middle;fontFamily=Helvetica;fontSize=11;fontColor=default;labelBackgroundColor=default;startFill=0;endArrow=none;" edge="1" parent="1" source="GSGQJa8hS1DyVfbDPlRu-1" target="RqHe8iyKgeFWLG7yYSla-36">
          <mxGeometry relative="1" as="geometry">
            <Array as="points">
              <mxPoint x="255" y="700" />
              <mxPoint x="270" y="700" />
            </Array>
          </mxGeometry>
        </mxCell>
        <mxCell id="GSGQJa8hS1DyVfbDPlRu-3" value="V_in" style="text;html=1;align=center;verticalAlign=middle;whiteSpace=wrap;rounded=0;fontFamily=Helvetica;fontSize=11;fontColor=default;labelBackgroundColor=default;" vertex="1" parent="1">
          <mxGeometry x="215" y="600" width="60" height="30" as="geometry" />
        </mxCell>
        <mxCell id="GSGQJa8hS1DyVfbDPlRu-4" value="" style="endArrow=classic;html=1;rounded=0;" edge="1" parent="1">
          <mxGeometry width="50" height="50" relative="1" as="geometry">
            <mxPoint x="260" y="530" as="sourcePoint" />
            <mxPoint x="260" y="690" as="targetPoint" />
            <Array as="points">
              <mxPoint x="260" y="542.5" />
            </Array>
          </mxGeometry>
        </mxCell>
        <mxCell id="GSGQJa8hS1DyVfbDPlRu-8" value="" style="pointerEvents=1;verticalLabelPosition=bottom;shadow=0;dashed=0;align=center;html=1;verticalAlign=top;shape=mxgraph.electrical.resistors.resistor_1;fontFamily=Helvetica;fontSize=11;fontColor=default;labelBackgroundColor=default;direction=south;" vertex="1" parent="1">
          <mxGeometry x="570" y="570" width="10" height="50" as="geometry" />
        </mxCell>
        <mxCell id="GSGQJa8hS1DyVfbDPlRu-10" style="edgeStyle=orthogonalEdgeStyle;shape=connector;rounded=0;orthogonalLoop=1;jettySize=auto;html=1;exitX=1;exitY=0.5;exitDx=0;exitDy=0;exitPerimeter=0;entryX=0;entryY=0.5;entryDx=0;entryDy=0;entryPerimeter=0;strokeColor=default;align=center;verticalAlign=middle;fontFamily=Helvetica;fontSize=11;fontColor=default;labelBackgroundColor=default;startFill=0;endArrow=none;" edge="1" parent="1" source="RqHe8iyKgeFWLG7yYSla-46" target="GSGQJa8hS1DyVfbDPlRu-8">
          <mxGeometry relative="1" as="geometry" />
        </mxCell>
        <mxCell id="GSGQJa8hS1DyVfbDPlRu-11" value="1M" style="text;html=1;align=center;verticalAlign=middle;whiteSpace=wrap;rounded=0;fontFamily=Helvetica;fontSize=11;fontColor=default;labelBackgroundColor=default;" vertex="1" parent="1">
          <mxGeometry x="580" y="585" width="25" height="20" as="geometry" />
        </mxCell>
        <mxCell id="GSGQJa8hS1DyVfbDPlRu-12" value="OP37" style="text;html=1;align=center;verticalAlign=middle;whiteSpace=wrap;rounded=0;fontFamily=Helvetica;fontSize=11;fontColor=default;labelBackgroundColor=default;" vertex="1" parent="1">
          <mxGeometry x="460" y="545" width="40" height="20" as="geometry" />
        </mxCell>
        <mxCell id="GSGQJa8hS1DyVfbDPlRu-13" style="edgeStyle=orthogonalEdgeStyle;shape=connector;rounded=0;orthogonalLoop=1;jettySize=auto;html=1;exitX=1;exitY=0.5;exitDx=0;exitDy=0;exitPerimeter=0;entryX=0;entryY=0.165;entryDx=0;entryDy=0;entryPerimeter=0;strokeColor=default;align=center;verticalAlign=middle;fontFamily=Helvetica;fontSize=11;fontColor=default;labelBackgroundColor=default;startFill=0;endArrow=none;" edge="1" parent="1" source="GSGQJa8hS1DyVfbDPlRu-8" target="RqHe8iyKgeFWLG7yYSla-46">
          <mxGeometry relative="1" as="geometry">
            <Array as="points">
              <mxPoint x="575" y="640" />
              <mxPoint x="430" y="640" />
              <mxPoint x="430" y="585" />
            </Array>
          </mxGeometry>
        </mxCell>
        <mxCell id="GSGQJa8hS1DyVfbDPlRu-16" style="edgeStyle=orthogonalEdgeStyle;shape=connector;rounded=0;orthogonalLoop=1;jettySize=auto;html=1;exitX=0;exitY=0.5;exitDx=0;exitDy=0;exitPerimeter=0;strokeColor=default;align=center;verticalAlign=middle;fontFamily=Helvetica;fontSize=11;fontColor=default;labelBackgroundColor=default;startFill=0;endArrow=none;" edge="1" parent="1" source="GSGQJa8hS1DyVfbDPlRu-14">
          <mxGeometry relative="1" as="geometry">
            <mxPoint x="575" y="640" as="targetPoint" />
          </mxGeometry>
        </mxCell>
        <mxCell id="GSGQJa8hS1DyVfbDPlRu-14" value="" style="pointerEvents=1;verticalLabelPosition=bottom;shadow=0;dashed=0;align=center;html=1;verticalAlign=top;shape=mxgraph.electrical.resistors.resistor_1;fontFamily=Helvetica;fontSize=11;fontColor=default;labelBackgroundColor=default;direction=south;" vertex="1" parent="1">
          <mxGeometry x="570" y="660" width="10" height="50" as="geometry" />
        </mxCell>
        <mxCell id="GSGQJa8hS1DyVfbDPlRu-17" value="" style="pointerEvents=1;verticalLabelPosition=bottom;shadow=0;dashed=0;align=center;html=1;verticalAlign=top;shape=mxgraph.electrical.signal_sources.signal_ground;" vertex="1" parent="1">
          <mxGeometry x="560" y="730" width="30" height="20" as="geometry" />
        </mxCell>
        <mxCell id="GSGQJa8hS1DyVfbDPlRu-18" style="edgeStyle=orthogonalEdgeStyle;shape=connector;rounded=0;orthogonalLoop=1;jettySize=auto;html=1;exitX=1;exitY=0.5;exitDx=0;exitDy=0;exitPerimeter=0;entryX=0.5;entryY=0;entryDx=0;entryDy=0;entryPerimeter=0;strokeColor=default;align=center;verticalAlign=middle;fontFamily=Helvetica;fontSize=11;fontColor=default;labelBackgroundColor=default;startFill=0;endArrow=none;" edge="1" parent="1" source="GSGQJa8hS1DyVfbDPlRu-14" target="GSGQJa8hS1DyVfbDPlRu-17">
          <mxGeometry relative="1" as="geometry" />
        </mxCell>
        <mxCell id="GSGQJa8hS1DyVfbDPlRu-19" value="10k" style="text;html=1;align=center;verticalAlign=middle;whiteSpace=wrap;rounded=0;fontFamily=Helvetica;fontSize=11;fontColor=default;labelBackgroundColor=default;" vertex="1" parent="1">
          <mxGeometry x="580" y="675" width="25" height="20" as="geometry" />
        </mxCell>
        <mxCell id="GSGQJa8hS1DyVfbDPlRu-20" value="" style="endArrow=classic;html=1;rounded=0;" edge="1" parent="1">
          <mxGeometry width="50" height="50" relative="1" as="geometry">
            <mxPoint x="500" y="830" as="sourcePoint" />
            <mxPoint x="500.5" y="890" as="targetPoint" />
          </mxGeometry>
        </mxCell>
        <mxCell id="GSGQJa8hS1DyVfbDPlRu-21" value="-15 V" style="text;html=1;align=center;verticalAlign=middle;whiteSpace=wrap;rounded=0;fontFamily=Helvetica;fontSize=11;fontColor=default;labelBackgroundColor=default;" vertex="1" parent="1">
          <mxGeometry x="470" y="890" width="60" height="30" as="geometry" />
        </mxCell>
        <mxCell id="GSGQJa8hS1DyVfbDPlRu-29" style="edgeStyle=orthogonalEdgeStyle;shape=connector;rounded=0;orthogonalLoop=1;jettySize=auto;html=1;exitX=0.5;exitY=1;exitDx=0;exitDy=0;strokeColor=default;align=center;verticalAlign=middle;fontFamily=Helvetica;fontSize=11;fontColor=default;labelBackgroundColor=default;startFill=0;endArrow=none;" edge="1" parent="1" source="GSGQJa8hS1DyVfbDPlRu-26">
          <mxGeometry relative="1" as="geometry">
            <mxPoint x="580" y="555" as="targetPoint" />
          </mxGeometry>
        </mxCell>
        <mxCell id="GSGQJa8hS1DyVfbDPlRu-26" value="" style="shape=offPageConnector;whiteSpace=wrap;html=1;fontFamily=Helvetica;fontSize=11;fontColor=default;labelBackgroundColor=default;direction=south;" vertex="1" parent="1">
          <mxGeometry x="710" y="527.5" width="100" height="55" as="geometry" />
        </mxCell>
        <mxCell id="GSGQJa8hS1DyVfbDPlRu-27" value="DAC" style="text;html=1;align=center;verticalAlign=middle;whiteSpace=wrap;rounded=0;fontFamily=Helvetica;fontSize=11;fontColor=default;labelBackgroundColor=default;" vertex="1" parent="1">
          <mxGeometry x="730" y="527.5" width="60" height="30" as="geometry" />
        </mxCell>
        <mxCell id="GSGQJa8hS1DyVfbDPlRu-28" value="Port C" style="text;html=1;align=center;verticalAlign=middle;whiteSpace=wrap;rounded=0;fontFamily=Helvetica;fontSize=11;fontColor=default;labelBackgroundColor=default;" vertex="1" parent="1">
          <mxGeometry x="730" y="547.4999999999999" width="60" height="30" as="geometry" />
        </mxCell>
        <mxCell id="GSGQJa8hS1DyVfbDPlRu-30" value="AI1" style="text;html=1;align=center;verticalAlign=middle;whiteSpace=wrap;rounded=0;fontFamily=Helvetica;fontSize=11;fontColor=default;labelBackgroundColor=default;" vertex="1" parent="1">
          <mxGeometry x="670" y="527.5" width="60" height="30" as="geometry" />
        </mxCell>
        <mxCell id="GSGQJa8hS1DyVfbDPlRu-32" style="edgeStyle=orthogonalEdgeStyle;shape=connector;rounded=0;orthogonalLoop=1;jettySize=auto;html=1;exitX=0.5;exitY=0;exitDx=0;exitDy=0;exitPerimeter=0;entryX=1;entryY=0.75;entryDx=0;entryDy=0;strokeColor=default;align=center;verticalAlign=middle;fontFamily=Helvetica;fontSize=11;fontColor=default;labelBackgroundColor=default;startFill=0;endArrow=none;" edge="1" parent="1" source="GSGQJa8hS1DyVfbDPlRu-31" target="RqHe8iyKgeFWLG7yYSla-36">
          <mxGeometry relative="1" as="geometry">
            <Array as="points">
              <mxPoint x="685" y="641" />
            </Array>
          </mxGeometry>
        </mxCell>
        <mxCell id="GSGQJa8hS1DyVfbDPlRu-31" value="" style="pointerEvents=1;verticalLabelPosition=bottom;shadow=0;dashed=0;align=center;html=1;verticalAlign=top;shape=mxgraph.electrical.signal_sources.signal_ground;" vertex="1" parent="1">
          <mxGeometry x="670" y="670" width="30" height="20" as="geometry" />
        </mxCell>
        <mxCell id="GSGQJa8hS1DyVfbDPlRu-33" value="" style="endArrow=classic;html=1;rounded=0;" edge="1" parent="1">
          <mxGeometry width="50" height="50" relative="1" as="geometry">
            <mxPoint x="670" y="565" as="sourcePoint" />
            <mxPoint x="670" y="630" as="targetPoint" />
            <Array as="points">
              <mxPoint x="670" y="577.5" />
            </Array>
          </mxGeometry>
        </mxCell>
        <mxCell id="GSGQJa8hS1DyVfbDPlRu-34" value="V_out" style="text;html=1;align=center;verticalAlign=middle;whiteSpace=wrap;rounded=0;fontFamily=Helvetica;fontSize=11;fontColor=default;labelBackgroundColor=default;" vertex="1" parent="1">
          <mxGeometry x="660" y="582.5" width="60" height="30" as="geometry" />
        </mxCell>
      </root>
    </mxGraphModel>
  </diagram>
</mxfile>
